<svg xmlns="http://www.w3.org/2000/svg" viewBox="0 0 820 650" fill="none">
  <defs>
    <linearGradient id="panel" x1="106" y1="80" x2="670" y2="570" gradientUnits="userSpaceOnUse"><stop stop-color="#ffffff" stop-opacity=".21"/><stop offset="1" stop-color="#ffffff" stop-opacity=".035"/></linearGradient>
    <linearGradient id="screen" x1="119" y1="130" x2="596" y2="487" gradientUnits="userSpaceOnUse"><stop stop-color="#24203a"/><stop offset="1" stop-color="#100e19"/></linearGradient>
    <linearGradient id="code" x1="235" y1="285" x2="581" y2="386" gradientUnits="userSpaceOnUse"><stop stop-color="#cdb7ff"/><stop offset="1" stop-color="#ff94ce"/></linearGradient>
    <linearGradient id="pink" x1="627" y1="112" x2="712" y2="228" gradientUnits="userSpaceOnUse"><stop stop-color="#ffb2dc"/><stop offset="1" stop-color="#ae8aff"/></linearGradient>
    <filter id="blur"><feGaussianBlur stdDeviation="13"/></filter>
    <filter id="shadow" x="-20%" y="-20%" width="150%" height="160%"><feDropShadow dx="0" dy="18" stdDeviation="19" flood-color="#000" flood-opacity=".55"/></filter>
  </defs>
  <ellipse cx="428" cy="369" rx="307" ry="220" fill="#9e79ff" fill-opacity=".13" filter="url(#blur)"/>
  <g filter="url(#shadow)" transform="rotate(-4 405 328)">
    <rect x="112" y="95" width="530" height="398" rx="23" fill="url(#panel)" stroke="#fff" stroke-opacity=".27"/>
    <rect x="125" y="132" width="504" height="348" rx="13" fill="url(#screen)" stroke="#fff" stroke-opacity=".1"/>
    <circle cx="146" cy="114" r="4" fill="#ff8ecb"/><circle cx="161" cy="114" r="4" fill="#c8b4ff"/><circle cx="176" cy="114" r="4" fill="#fff" fill-opacity=".8"/>
    <rect x="152" y="158" width="93" height="18" rx="5" fill="#fff" fill-opacity=".08"/><rect x="152" y="197" width="76" height="6" rx="3" fill="#d9caff" fill-opacity=".7"/><rect x="152" y="217" width="55" height="6" rx="3" fill="#fff" fill-opacity=".2"/><rect x="152" y="237" width="82" height="6" rx="3" fill="#fff" fill-opacity=".2"/><rect x="152" y="257" width="42" height="6" rx="3" fill="#fff" fill-opacity=".2"/>
    <path d="M276 204h80l13 20h57" stroke="url(#code)" stroke-width="7" stroke-linecap="round"/><path d="M301 242h168" stroke="#fff" stroke-opacity=".18" stroke-width="6" stroke-linecap="round"/><path d="M276 280h47l18 21h112" stroke="#ff9bd5" stroke-opacity=".9" stroke-width="7" stroke-linecap="round"/><path d="M276 319h87l12 20h155" stroke="#fff" stroke-opacity=".18" stroke-width="6" stroke-linecap="round"/><path d="M302 357h73l20 22h102" stroke="url(#code)" stroke-width="7" stroke-linecap="round"/><path d="M276 397h118" stroke="#fff" stroke-opacity=".18" stroke-width="6" stroke-linecap="round"/><path d="M415 397h88" stroke="#fff" stroke-opacity=".1" stroke-width="6" stroke-linecap="round"/>
    <rect x="527" y="178" width="75" height="134" rx="12" fill="#fff" fill-opacity=".055" stroke="#fff" stroke-opacity=".14"/><circle cx="564" cy="218" r="17" fill="url(#pink)" fill-opacity=".9"/><path d="M546 262c17-15 34-15 50 0M546 278c13-9 29-9 50 0" stroke="#fff" stroke-opacity=".55" stroke-width="4" stroke-linecap="round"/>
    <rect x="528" y="334" width="75" height="117" rx="12" fill="#fff" fill-opacity=".055" stroke="#fff" stroke-opacity=".14"/><rect x="545" y="354" width="40" height="5" rx="2.5" fill="#fff" fill-opacity=".5"/><rect x="545" y="373" width="28" height="5" rx="2.5" fill="#ff9bd5"/><path d="M546 425c11-27 18 4 26-18 5-15 10 1 16-14" stroke="#c8b4ff" stroke-width="3" stroke-linecap="round"/>
  </g>
  <g transform="rotate(14 662 181)" filter="url(#shadow)"><rect x="594" y="104" width="154" height="151" rx="22" fill="url(#panel)" stroke="#fff" stroke-opacity=".29"/><rect x="611" y="124" width="120" height="78" rx="13" fill="url(#pink)" fill-opacity=".5"/><rect x="611" y="218" width="71" height="7" rx="3.5" fill="#fff" fill-opacity=".72"/><rect x="611" y="235" width="105" height="5" rx="2.5" fill="#fff" fill-opacity=".25"/></g>
  <g transform="rotate(-12 118 472)" filter="url(#shadow)"><rect x="36" y="408" width="194" height="143" rx="22" fill="url(#panel)" stroke="#fff" stroke-opacity=".29"/><path d="M64 505c25-31 39 12 62-31 17-33 26 1 44-25 12-17 19-6 33-26" stroke="#ff9bd5" stroke-width="5" stroke-linecap="round"/><rect x="64" y="434" width="65" height="7" rx="3.5" fill="#fff" fill-opacity=".7"/><rect x="64" y="451" width="114" height="5" rx="2.5" fill="#fff" fill-opacity=".22"/></g>
  <circle cx="699" cy="337" r="7" fill="#ff9bd5"/><circle cx="82" cy="286" r="5" fill="#c8b4ff"/>
</svg>
